<?xml version="1.0" encoding="utf-8"?>
<!-- Generator: Adobe Illustrator 26.0.0, SVG Export Plug-In . SVG Version: 6.00 Build 0)  -->
<svg version="1.1" id="Layer_1" xmlns="http://www.w3.org/2000/svg" xmlns:xlink="http://www.w3.org/1999/xlink" x="0px" y="0px"
	 viewBox="0 0 595.28 841.89" style="enable-background:new 0 0 595.28 841.89;" xml:space="preserve">
<style type="text/css">
	.st0{fill:#2E2E2E;}
	.st1{fill:#252525;}
	.st2{fill:#2D2D2D;}
	.st3{fill:#3B3A3A;}
	.st4{fill:#363636;}
	.st5{fill:#5A5959;}
	.st6{fill:#585858;}
	.st7{fill:#9A9999;}
	.st8{fill:#919191;}
	.st9{fill:#8F8F8F;}
	.st10{fill:#FFFFFF;}
	.st11{fill:#ACACCB;}
	.st12{fill:#A35F55;}
	.st13{fill:#A66157;}
	.st14{fill:#FCFCFC;}
	.st15{fill:#ECECEC;}
	.st16{fill:#BD6D63;}
	.st17{fill:#CC7769;}
	.st18{fill:#F18A78;}
	.st19{fill:#F4F3F4;}
	.st20{fill:#ED8677;}
	.st21{fill:#995B53;}
	.st22{fill:#F18B79;}
	.st23{fill:#FAFAFA;}
	.st24{fill:#D17A6B;}
	.st25{fill:#A7A6A6;}
	.st26{fill:#AEADAD;}
	.st27{fill:#CDCCCC;}
	.st28{fill:#F18C79;}
	.st29{fill:#CFCECE;}
	.st30{fill:#D6D6D6;}
	.st31{fill:#D6D7D7;}
	.st32{fill:#EEEDED;}
	.st33{fill:#F3F3F3;}
	.st34{fill:#F8F7F7;}
	.st35{fill:#AF665B;}
	.st36{fill:#E2E1E1;}
	.st37{fill:#DCDCDC;}
	.st38{fill:#E9E8E8;}
	.st39{fill:#DDDDDD;}
	.st40{fill:#A9A9AA;}
	.st41{fill:#EAEAEA;}
	.st42{fill:#B8B8B8;}
	.st43{fill:#A26459;}
	.st44{fill:#AD685D;}
	.st45{fill:#B87063;}
	.st46{fill:#F18D7B;}
	.st47{fill:#F18C7B;}
	.st48{fill:#B16C62;}
	.st49{fill:#BC7264;}
	.st50{fill:#CBCACA;}
	.st51{fill:#CFCFCF;}
	.st52{fill:#E5E5E4;}
	.st53{fill:#D0D0D0;}
	.st54{fill:#D3D3D3;}
	.st55{fill:#F5F5F5;}
	.st56{fill:#F6F6F6;}
	.st57{fill:#C0C0BF;}
	.st58{fill:#BCBCBB;}
	.st59{fill:#C6C6C6;}
	.st60{fill:#919292;}
	.st61{fill:#939393;}
	.st62{fill:#9D9D9D;}
	.st63{fill:#9E9E9E;}
	.st64{fill:#9B9B9A;}
	.st65{fill:#A1A0A0;}
	.st66{fill:#8C8C8D;}
	.st67{fill:#989999;}
	.st68{fill:#9F9F9F;}
	.st69{fill:#989898;}
	.st70{fill:#969696;}
	.st71{fill:#BEBDBE;}
	.st72{fill:#A8A8A8;}
	.st73{fill:#B8B7B7;}
	.st74{fill:#8E8E8E;}
	.st75{fill:#ACACAC;}
	.st76{fill:#A2A2A1;}
	.st77{fill:#B2B2B2;}
	.st78{fill:#B4B4B4;}
	.st79{fill:#ABABAB;}
	.st80{fill:#A3A3A2;}
	.st81{fill:#8A8A8A;}
	.st82{fill:#C7C6C6;}
	.st83{fill:#9D9D9C;}
	.st84{fill:#A6A6A6;}
	.st85{fill:#A5A4A4;}
	.st86{fill:#878889;}
	.st87{fill:#BABABA;}
	.st88{fill:#777778;}
	.st89{fill:#D7D8D8;}
	.st90{fill:#E0E0E0;}
	.st91{fill:#F18D7C;}
	.st92{fill:#F18B78;}
	.st93{fill:#F18A79;}
	.st94{fill:#EF8A78;}
	.st95{fill:#93908F;}
	.st96{fill:#F18B7A;}
	.st97{fill:#E48674;}
	.st98{fill:#EF877A;}
	.st99{fill:#EF8C79;}
	.st100{fill:#A6A7A7;}
	.st101{fill:#EE8B76;}
	.st102{fill:#434342;}
	.st103{fill:#444444;}
	.st104{fill:#454545;}
	.st105{fill:#3F3F3F;}
</style>
<path class="st0" d="M577.02,192.43c-4.12,2.44-8.76,1.44-13.16,1.95c-3.96,0.46-5.28,1.59-2.34,5.15c1.25,1.51,2.1,3.4,2.92,5.2
	c3.2,7.02-0.38,14.25-8.07,14.49c-9.37,0.29-13.25,4.49-15.75,13.41c-5.34,19.08-12.18,37.7-27.02,52.06
	c-3.88,3.75-5.17,8.75-5.01,14.19c0.25,8.34-0.35,16.61-2.25,24.79c-1.95,8.4-7.37,13.08-15.35,15.26
	c-3.84,1.05-7.63,2.33-11.63,2.22c0,0.7-0.12,1.21,0.02,1.3c13.75,8.85,11.12,22.46,6.39,34.81c-6.55,17.08-15.84,32.93-23.63,49.44
	c-7.15,15.15-13.1,30.87-19.53,46.36c-1.31,3.16-1.3,6.56-0.88,9.87c1.23,9.74-1.87,18-8.1,25.35c-4.52,5.33-8.66,10.99-13.39,16.12
	c-8.07,8.76-13.29,18.79-16.57,30.28c-3.88,13.61-10.28,26.26-17.34,38.55c-8.69,15.14-11.63,32.14-15.21,48.86
	c-4.4,20.53-12.27,39.7-22.31,57.94c-7.13,12.96-9.2,25.88-5.28,40.32c2.95,10.85,1.72,22.13-3.43,32.17
	c-7.26,14.14-25.88,20.03-37.52,3.24c-3.86-5.57-6.61-11.6-8.49-17.96c-3.49-11.81-9.12-22.54-16.19-32.42
	c-5.54-7.74-9.71-15.91-11.35-25.23c-2.71-15.35-9.14-29.06-17.48-42.06c-8.73-13.61-13.54-28.81-17.15-44.43
	c-0.18-0.8-0.43-1.58-0.68-2.36c-0.03-0.1-0.24-0.13-0.87-0.45c-0.94,3.51-0.29,6.91-0.04,10.24c0.65,8.63,1.58,17.24,2.12,25.87
	c0.24,3.78,0.27,7.69-1.8,11.17c-3.22,5.41-9.73,7.2-17.81,4.92c-10.55-2.99-16.07-9.92-16.83-20.9
	c-0.96-13.89,3.16-26.61,8.68-39.05c4.79-10.79,7.25-21.79,2.81-33.38c-1.76-4.59-4.74-8.4-7.85-12.06
	c-10.9-12.81-19.57-27.24-29.66-40.64c-0.58-0.78-0.78-2-2-1.84c-1.28,0.16-1.17,1.42-1.36,2.35c-1.29,6.1-3.98,11.62-7.19,16.88
	c-3.55,5.81-7.46,7.78-12.17,6.51c-6.03-1.62-10.09-6.33-10.24-12.62c-0.27-11.24,0.8-22.5,5.6-32.7
	c9.16-19.48,8.54-38.43-0.55-57.67c-6.09-12.88-9.99-26.75-18.04-38.77c-10.47-15.63-19.87-31.95-25.93-49.81
	c-3.95-11.62-6.5-23.72-12.32-34.68c-1.75-3.3-3.5-6.59-6.41-9.69c0.48,7.62,0.89,15.24,1.46,22.85c0.25,3.33,0.58,6.64-0.15,9.93
	c-1.61,7.28-5.78,10.01-13.08,8.56c-7.06-1.4-12.92-7.39-14-14.56c-2.14-14.15,1.41-27.43,6.4-40.46c0.3-0.78,0.59-1.56,0.91-2.32
	c3.22-7.62,2.43-14.18-2.73-21.27c-16.54-22.75-30.09-47.35-42.46-72.58c-0.42-0.87-0.69-1.81-1.03-2.72
	c1.97-0.2,1.09-2.19,1.95-3.1c0.41-0.25,0.85-0.34,1.32-0.25c0.3,0.15,0.59,0.32,0.82,0.55c5.96,5.98,5.96,5.98,12.51,1.46
	c3.24-0.16,3.09-3.03,4.02-5.04c1.43-2.44,3.08-4.74,4.1-7.41c5.41-7.28,5.65-15.33,3.63-23.75c-1.79-7.46-4.04-14.74-8.01-21.39
	c-0.44-1.79-1.7-3.59,0.05-5.35c1.99-0.01,2.97,1.4,3.74,2.88c4.96,9.53,8.58,19.47,9.65,30.28c0.79,7.94-2.3,14.66-6,21.27
	c-1.3,2.32-2.87,4.52-3.51,7.15c-1.56,6.43,2.33,10.18,8.68,8.26c3.68-1.11,6.97-3.14,10.4-4.86c7.28-3.64,14.33-7.81,22.51-9.38
	c5.5-1.06,10.92-1.17,16.33,0.27c4.85,1.29,8.79-0.01,10.89-4.59c6.39-13.93,18.51-18.08,32.38-19.79c8.41-1.04,16.81-2.33,25.14-4
	c3.28-0.66,5.04-2.18,4.95-5.66c-0.07-2.83,0.08-5.66-0.36-8.48c-0.18-1.15-0.44-2.3-0.43-3.47c0.04-3.02-0.17-6.79,3.71-7.11
	c4.22-0.34,3.99,3.57,4.25,6.52c0.13,1.49,0.26,3.03,0.02,4.49c-1.63,9.68,3.19,15.31,11.47,19.13c3.71,1.71,6.98,1.8,10.32-0.57
	c1.77-1.26,3.38-2.7,5-4.14c7.16-6.36,15.55-9.61,25.1-9.51c6.42,0.07,12.65-0.77,18.63-3.02c8.1-3.06,16.64-3.14,25.07-3.9
	c3.89-0.35,7.62,0.81,11.09,2.55c10.72,5.36,21.41,6.1,32.75,1.4c10.43-4.33,21.53-4.06,32.47-1.95
	c11.17,2.16,12.26,1.53,12.81-9.76c0.24-4.82-0.15-9.68,1.07-14.42c0.5-1.94,0.88-4.21,3.62-3.89c2.42,0.28,3.23,2.29,3.35,4.36
	c0.38,6.32,0.67,12.66-0.37,18.94c-0.65,3.94,0.48,6.58,3.52,9.56c7.91,7.74,17.4,10.02,27.86,10.06c6,0.02,11.99,0.1,17.99-0.08
	c4.35-0.13,7.07-2.04,8.36-6.4c1.36-4.63,2.72-9.27,4.25-13.85c0.69-2.09,1.66-4.35,4.51-3.51c2.55,0.75,2.98,3.05,2.63,5.3
	c-0.82,5.28-2.57,10.35-4.31,15.38c-1.2,3.46-0.33,5.4,2.41,8.06c8.08,7.85,17.41,9.78,28.3,9.3c12.6-0.56,25.33-1.13,37.84,1.62
	c3.86,0.85,5.83-0.94,6.93-4.57c2.47-8.17,4.43-16.38,4.17-25.02c-0.08-2.71-0.41-6.71,3.23-6.83c4.06-0.13,3.74,4.03,3.82,6.89
	c0.27,9.59-1.23,18.9-4.79,27.87c-2.03,5.11,1.51,15.09,6.23,17.88c1.83,1.08,3.91,1.1,5.83,0.56c8.35-2.31,16.88-1.72,25.34-1.47
	c5,0.15,9.96,0,14.94-0.08c6.61-0.11,11.49-3.06,14.95-8.47c5.85-9.15,7.45-19.61,8.17-30.06c0.55-8.04,1.43-16.36-2.55-24.05
	c-0.46-0.89-0.42-1.94,0.16-2.87c4.94-0.11,5.74,4.27,5.98,7.16c1.52,18.24,1.88,36.42-8.34,52.88c-4.17,6.72-10.39,9.42-18.02,9.45
	c-2.58,0.01-5.15,0.06-6.94,0.43C566.7,192.56,571.88,190.25,577.02,192.43z"/>
<path class="st1" d="M16.85,189.42c-0.28,1.91,1.02,3.32,2.07,5.29c-2.38,0.17-2.65-2.33-4.25-2.33
	c-13.68-23.06-18.12-47.16-8.91-73.12c2.11-5.96,5.24-11.43,7.19-17.45c0.88-2.71,4.07-3.73,6.84-4.52
	c32.79-9.31,65.81-17.74,98.78-26.37c34.2-8.96,68.99-14.61,103.84-19.91c16.8-2.56,33.92-1.54,50.89-1.1
	c18.95,0.49,37.96,0.44,56.84,2.5c29.28,3.2,58.78,4.4,87.84,9.46c16.87,2.94,33.3,7.96,49.95,11.91
	c25.76,6.12,50.64,15.06,75.83,23.01c12.83,4.05,25.96,7.17,37.83,13.71c10.88,5.99,16.86,14.76,16.55,27.85
	c-0.33,13.73-0.62,27.37-6.58,40.04c-2.99,6.36-7.12,12.02-14.53,14.03c-7.15-1.01-14.3,1.31-21.49,0.09
	c2.82-1.7,5.92-1.26,8.87-1.13c13.75,0.58,22.25-6.65,26.77-20.92c3.97-12.56,3.73-25.2,3.5-37.94c-0.07-3.85-1.05-7.94-5.1-10.11
	c-1.27,0.28-2.34-0.24-3.21-1.02c-8.45-7.56-18.87-11.3-29.41-14.34c-28.81-8.31-56.81-19.3-86.02-26.31
	c-16.52-3.96-32.88-8.59-49.54-12.01c-4.57-0.94-5.22-0.83-4.67,4.42c1.05,10.03,2.27,20.2,0.62,30.34
	c-0.35,2.13-0.49,4.74-3.55,4.4c-2.69-0.3-3.49-2.64-3.16-4.89c1.18-8.02,0.15-15.96-0.43-23.92c-0.11-1.5-0.14-2.99-0.41-4.47
	c-1.39-7.47-2.88-8.81-10.39-9.57c-23.36-2.38-46.75-4.33-70.11-6.72c-8.23-0.84-16.59-1.51-24.92-1.33
	c-10,0.21-19.92-1.55-29.94-1.06c-6.1,0.3-6.08,0.17-4.18,5.78c3.45,10.23,4.53,20.8,4.11,31.54c-0.08,2.14-0.22,4.95-2.93,5.07
	c-3.19,0.14-3.91-2.76-4.02-5.32c-0.23-5.49-0.53-10.97-1.07-16.44c-0.5-5.04-1.87-9.78-3.57-14.51c-1.55-4.33-4.29-5.96-9-6.18
	c-19.64-0.9-38.87,2.1-58.11,5.33c-18.4,3.09-36.66,6.91-55.02,10.23c-7.55,1.36-14.83,3.85-22.23,5.84
	c-3.48,0.93-4.32,2.46-2.52,5.65c3.57,6.32,5.23,13.3,6.7,20.33c0.31,1.47,0.62,2.95,0.48,4.46c-0.18,1.94-0.76,3.76-3,4
	c-2.02,0.22-2.93-1.36-3.47-3c-1.44-4.44-2.02-9.11-3.38-13.58c-4.51-14.88-5.07-15.21-20.06-11.54
	c-23.14,5.67-45.96,12.52-68.97,18.7c-5.25,1.41-5.5,2.68-1.49,6.26c4.4,3.92,8.02,8.47,11.06,13.47c1.09,1.8,2.44,3.69,1.26,6.03
	c0.29,1.76,0.57,3.53,0.86,5.29c-0.22,0.08-0.44,0.16-0.66,0.24c-3.43-1.06-3.89-5.14-6.84-6.69c-3.82-3.68-5.72-8.96-10.28-12.09
	c-2.42-1.65-3.97-1.57-4.83,1.29c-3.08,10.16-6.57,20.22-6.9,31C6.12,155.06,8.48,162.5,11,169.9c1.02,2.99,2.03,5.97,2.99,8.98
	C14.41,182.54,17.86,185.38,16.85,189.42z"/>
<path class="st2" d="M222.34,707.7c-9.02,1.19-13.73,6.5-15.62,15.47c-1.19-9.41-6.45-14.15-15.66-15.68
	c9.08-1.38,14.84-5.65,14.8-15.92c3.54,3.41,2.79,7.97,5.59,10.88C214.42,705.54,218.42,705.91,222.34,707.7z"/>
<path class="st0" d="M123.89,472.47c-1.74-8.56-5.9-14.13-15.29-15.47c9.28-1.54,13.84-6.83,15.33-15.62
	c1.26,8.85,5.52,14.14,14.96,15.39C130.14,458.66,124.92,463.3,123.89,472.47z"/>
<path class="st3" d="M94.89,488.27c-1.81-2.57-3.51-5.25-7.2-5.38c-0.49-0.02-1.26-0.72-1.37-1.23c-0.23-1.03,0.69-1.38,1.52-1.53
	c4.22-0.74,6.84-3.06,7.53-7.4c0.12-0.78,0.42-1.76,1.38-1.82c1.31-0.08,1.54,1.1,1.71,2.04c0.68,3.86,2.88,6.18,6.7,7.04
	c0.88,0.2,2.27,0.12,2.25,1.45c-0.02,1.52-1.46,1.49-2.55,1.79c-2.76,0.75-5.33,1.79-6.03,5.03c-0.71,0.76-0.33,2.41-1.97,2.41
	C95.22,490.67,95.61,489.02,94.89,488.27z"/>
<path class="st4" d="M238.79,684.17c-2.56,1.71-4.65,3.77-5.05,7.03c-0.69,1.24-1.41,1.98-2.42,0.25c-0.75-1.28-0.5-2.95-1.59-4.09
	c-4.36-4.15-4.29-4.99-0.76-9.57c1.54-1.99,2.33-4.56,3.74-7.43c1.65,3.97,1.65,8.44,6.1,9.95c1.08,0.78,3.25,0.46,3.09,2.41
	C241.76,684.49,239.66,683.27,238.79,684.17z"/>
<path class="st5" d="M259.63,715.67c-0.18,1.45-1.22,1.94-2.44,2c-3.84,0.19-6.17,2.01-6.7,5.93c-0.18,1.31-0.95,2.19-2.27,2.23
	c-1.28,0.03-1.5-1.07-1.63-2.09c-0.5-3.81-2.68-5.87-6.48-6.32c-1.18-0.14-2.41-0.5-2.45-1.97c-0.04-1.7,1.41-1.48,2.51-1.69
	c3.78-0.72,6.39-2.59,6.74-6.76c0.09-1.1,0.72-1.93,1.9-1.84c0.55,0.04,1.51,0.55,1.54,0.92c0.43,5.12,3.2,7.74,8.26,8.12
	C259.35,714.24,259.6,714.96,259.63,715.67z"/>
<path class="st6" d="M133.43,505.79c-0.18,1.13-0.95,1.88-1.98,1.89c-4.46,0.02-6.43,2.66-7.39,6.59c-0.22,0.92-0.79,1.94-2.02,1.72
	c-0.94-0.17-1.16-1.09-1.31-1.91c-0.7-3.84-2.66-6.32-6.83-6.6c-1.28-0.09-2.24-0.78-2.11-2.22c0.12-1.31,1.27-1.31,2.24-1.41
	c4-0.41,6.25-2.66,6.97-6.56c0.18-0.96,0.33-2.12,1.63-2.1c1.12,0.01,1.87,0.91,1.98,1.92c0.49,4.52,2.99,6.74,7.45,7.01
	C132.88,504.17,133.6,504.71,133.43,505.79z"/>
<path class="st7" d="M94.89,488.27c1.31,2.26,2.63,2.25,3.94,0c-0.11,2.11,0.97,5.46-2.2,5.35
	C94.17,493.54,94.87,490.32,94.89,488.27z"/>
<path class="st8" d="M238.79,684.17c3.33-1.26,2.19-2.56,0.03-3.86c2.18-0.01,5.52-0.96,5.4,2.22
	C244.11,685.02,240.86,684.27,238.79,684.17z"/>
<path class="st9" d="M229.73,687.36c2.19,0.39,0.67,4.64,4,3.84c0.17,1.25,0.63,2.98-0.75,3.38c-1.65,0.49-1.81-1.5-2.21-2.57
	C230.23,690.53,230.06,688.91,229.73,687.36z"/>
<path class="st10" d="M35.02,128.04c-3.33-7.57-8.19-13.97-14.56-19.25c-1.44-1.2-4.08-1.82-3.54-4.26c0.55-2.44,3.22-2.74,5.2-3.32
	c11.16-3.26,22.33-6.51,33.57-9.49c16.07-4.26,32.22-8.21,48.29-12.48c2.4-0.64,3.44-0.26,4.75,1.87c4.92,7.95,7.17,16.76,8.9,25.78
	c0.34,1.8,0.49,4.4,2.69,4.1c2.54-0.35,1.39-2.89,1.13-4.58c-1.4-8.92-3.67-17.6-8.38-25.4c-1.61-2.67-1.14-3.65,1.79-4.5
	c30.91-9,62.71-13.57,94.32-19.13c15.48-2.72,31.05-3.55,46.74-3.43c3.76,0.03,5.51,1.27,7.12,4.57c4.97,10.22,5.33,21.2,6.03,32.15
	c0.1,1.5,0.1,3,0.16,4.49c0.05,1.51,0.59,2.72,2.33,2.53c1.58-0.17,1.51-1.56,1.47-2.71c-0.45-12.64-0.36-25.42-6.23-37.1
	c-1.77-3.52-0.52-3.96,2.59-3.83c27.42,1.18,54.88,1.48,82.19,4.86c15.85,1.96,31.81,3.04,47.71,4.57
	c10.08,0.97,11.25,1.88,12.38,11.92c0.94,8.43,1.34,16.92,0.71,25.42c-0.09,1.16-0.19,2.32-0.24,3.49
	c-0.06,1.48,0.38,2.78,2.07,2.83c1.54,0.04,1.79-1.36,1.83-2.49c0.44-11.46,1.02-22.93-1.56-34.24c-0.32-1.42-1.53-2.94-0.37-4.21
	c1.26-1.37,2.79,0.07,4.17,0.35c28.2,5.8,56.09,12.86,83.62,21.24c23.03,7.01,45.82,14.81,68.66,22.45
	c7.29,2.44,13.74,6.47,19.03,12.18c7.46,14.56,4.05,29.45,1.22,44.27c-1.26,6.63-4.03,12.62-8.72,17.63
	c-6.31,6.73-14.84,5.77-22.49,5.43c-10.68-0.48-21.25-1.36-31.72,1.39c-4.21,1.1-6.67-0.3-9.05-3.91
	c-4.36-6.63-6.78-12.6-2.62-20.78c3.92-7.71,3.82-16.77,3.66-25.48c-0.03-1.65,0.05-3.94-1.92-4.06c-2.54-0.15-2.43,2.32-2.32,4.09
	c0.64,10.15-1.19,19.85-4.68,29.36c-1.2,3.26-2.52,4.85-6.46,3.95c-14.95-3.43-30.19-1.55-45.29-1.65
	c-8.02-0.05-14.36-2.45-20.29-7.69c-7.06-6.23-7.3-5.95-4.73-14.76c1.07-3.67,2.14-7.35,3.14-11.04c0.56-2.06,1.68-4.81-1-5.67
	c-3.16-1.02-3.04,2.44-3.5,4.2c-1.53,5.79-3.23,11.51-5.32,17.12c-0.7,1.88-1.57,3.02-3.88,3.05c-10.64,0.13-21.27,1.14-31.92-0.27
	c-6.5-0.86-12.17-3.1-16.77-7.85c-0.81-0.84-1.59-2.02-2.59-2.29c-5.47-1.49-4.85-5.28-4.4-9.62c0.65-6.28,0.61-12.63,0.78-18.95
	c0.05-1.73,0.62-4.22-1.99-4.35c-2.61-0.13-2.22,2.39-2.33,4.09c-0.48,7.47-1.02,14.94-1.22,22.42c-0.08,3.07-0.92,3.83-4.08,3.66
	c-7.49-0.4-14.7-2.73-22.29-2.58c-7.58,0.16-14.95,0.92-21.94,3.94c-9.12,3.95-18.5,4.06-27.02-0.52
	c-9.42-5.07-19.2-4.94-28.65-2.85c-11.83,2.61-23.47,5.46-35.66,6.16c-8.23,0.47-14.82,5.35-20.9,10.73
	c-7.35,6.5-8.08,6.07-16.55,1.67c-7.73-4.02-11.44-9.43-10.29-18.2c0.38-2.93-0.12-5.98-0.24-8.98c-0.06-1.44-0.47-2.79-2.13-2.87
	c-1.84-0.09-2.12,1.56-2.1,2.81c0.06,5.32-0.16,10.71,0.59,15.94c0.75,5.2-1.51,6.63-6.03,7.27c-11.19,1.58-22.37,3.26-33.48,5.33
	c-10.31,1.93-18.35,7.03-22.86,17.17c-2.89,6.49-5.38,7.63-12.29,5.85c-12.42-3.22-23.25,0.87-33.88,6.43
	c-4.71,2.46-9.21,5.3-14.21,7.2c-4.05,1.54-8.14,1.72-11.09-1.6c-2.88-3.24-1.62-7.14,0.12-10.71c0.29-0.6,0.47-1.28,0.87-1.79
	c11.03-14.21,8.88-29.2,2.51-44.35C39.72,136.36,38.42,131.64,35.02,128.04z"/>
<path class="st11" d="M262.06,296.56c-12.25,32.82-45.76,49.74-76.89,40.07c-31.6-9.81-50.73-42.7-42.91-73.72
	c8.59-34.09,40.62-51.42,66.93-47.07c-12.33,7.44-20.68,17.32-24.11,30.74c-3.48,13.61-1.39,26.55,6.26,38.27
	c7.65,11.71,18.6,18.55,32.49,21.15C237.61,308.57,249.58,304.33,262.06,296.56z"/>
<path class="st12" d="M319.87,479.02c0.65-0.25,1.3-0.49,1.95-0.74c4.73,3.1,9.96,4.01,15.51,3.6c0.82-0.06,1.75-0.02,2.43,0.4
	c7.94,4.95,17.6,3.72,25.78,7.57c1.57-1.85-0.66-4.25,1.39-5.65c1.46,1.25,4.21,0.65,4.69,3.29c0.78,2.7,1.86,5.47-0.94,7.69
	c-2.71,2.15-5.3,0.84-7.88-0.42c-1.92-0.95-3.74-2.19-5.26-2.2c2.74,0.56,5.61,2.64,8.81,3.94c4.68,1.9,5.19,1.57,6.17-3.3
	c0.25-1.25,0-2.71,1.16-3.68c1.35,1.94,2.71,3.89,4.06,5.83c-1.64,8.88-3.04,9.52-13.1,5.97c-0.64-0.17-0.15,0.89-0.18,0.23
	c-0.01-0.13,0.16-0.15,0.5-0.03c7.98,2.74,13.82,8.22,18.84,14.75c-1.25,12.52-3.36,24.5-14.14,33.18
	c-2.92,2.35-5.65,4.92-8.84,7.01c-2.32,1.52-4.5,1.8-6.97,0.85c-0.66-1.62,0.49-2.77,1.5-3.32c4.29-2.34,4.5-6.08,4.13-10.25
	c-0.19-2.14-0.45-4.42,0.41-6.43c1.65-3.83-0.12-4.82-3.48-4.62c0.84,0.92,2.6,1.7,1.56,3.42c-0.88,1.46-2.53,1.42-4.05,1.16
	c-1.83-0.31-3.38-1.37-5.04-2.1c-4.01-1.78-7.42-2.37-10.26,2.22c-1.69,2.73-4.73,3.76-7.89,2.11c-2.97-1.55-3.73-4.04-2.39-7.18
	c-1.01,1.84-1.41,4.13-4.56,5.03c2.85,0.82,4.92,1.73,7.02,2.54c1.45,0.56,2.9,1.23,2.59,3.12c-0.34,2.1-2.13,1.72-3.56,1.78
	c-1.31,0.06-2.62-0.07-4.2-0.35c1.68,0.42,3.01,0.97,4.3,1.62c2.99,1.5,4.77,3.82,3.83,7.24c-1.03,3.73-4.04,4.34-7.5,4.3
	c-1.99-0.02-3.42-2.15-5.54-1.23c-6.99-2.78-12.49-7.26-15.93-14.06c0.89-1.25,2.05-1.97,3.67-1.89c-4.37-2.42-5.44-4.8-4.1-9.1
	c0.34-1.1,0.85-2.14,1.27-3.22c0.29-0.75,0.8-1.49,0.35-2.34c-0.15-0.28-0.52-0.36-0.86-0.26c-1.25,0.36-1.09,1.38-1.18,2.37
	c-0.34,3.53-0.18,7.13-1.24,10.57c-4.21-1.14-4.18-5.78-4.88-8.28c-2.08-7.36-2.92-15.25,0.08-22.84c1.61,1.49,1.66,3.5,1.97,5.48
	c0.73,4.63,4.51,6.82,8.78,4.86c1.76-0.81,3.19-1.76,5.11-0.39c-1.58-2.08-2.96-1.05-4.47-0.05c-2.78,1.84-5.38,1.29-7.64-0.98
	c-1.22-1.22-2.18-2.75-1.18-4.47c1.05-1.79,2.61-0.99,3.92-0.22c1.53,0.89,2.73,0.88,3.89-0.61c2.66-3.4,5.32-1.85,7.64,0.34
	c3.19,3.01,4.4,6.86,3.96,11.03c1.56-3.74,3.96-7.02,6.55-8.4c-5.41,3.41-8.11,1.56-12.43-10.16c-2.04,2.55-3.69,6.1-7.69,5.11
	c-3.1-0.77-5.75-2.65-6.15-6.37c0.44-1.79,1.04-4.02,2.99-4.04c5.55-0.08,8.14-4.16,11.33-7.54c3.18-1.46,4.82,0.64,6.49,2.77
	c0.68,0.86,1.44,2.22,2.61,0.65c0.89-1.19,0.13-2.15-0.97-2.8c-1.97-1.17-4.15-1.95-6.03-3.28c-1.11-0.85-1.21-1.94-0.74-3.16
	c0.62-1.45,1.22-2.93,2.08-4.27C318.45,480.09,318.96,479.34,319.87,479.02z"/>
<path class="st13" d="M388.69,237.22c14.26-13.82,39-16.22,53.92,0.19c-2.42,0.68-4.64,4.59-6.76,1.43c2.7,5.9-4.87,6.69-7.05,10.5
	c-0.66,0.76-1.6,0.87-2.49,1.09c0.33,0.01,0.7,0.02,0.96,0.21c2.65,2.01-0.08-2.26,1.6-1.36c2.18-2.36,3.98-1.87,5.56,0.7
	c0.86,1.41,1.6,2.93,2.89,4.04c3.45,2.97,5.57,2.4,6.71-1.93c0.99-3.75,3.49-4.51,6.87-3.84c3.92,6.6,6.44,13.04,4.84,21.4
	c-1.11,5.8-3.28,11-4.96,16.46c-0.81,2.63-2.4,3.83-5.52,3.17c-5.73-1.2-10.8-4.05-16.22-5.81c-4.29-1.4-8.42-3.45-12.21-5.32
	c-6.76-3.35-13.79-6.45-20.11-10.73c3.2-4.87,4.3-5.04,8.87-1.45c-1.87-2.02-5.36-3.53-2.32-7.07c-2.11-1.56-3.52-4.04-6.18-4.86
	c-1.08-0.33-2.46-0.12-2.66-1.68c-0.2-1.51,0.78-2.45,1.86-3.29c4.17-3.26,6.75-2.88,9,1.29c-0.77-2.51-3-4.34-0.9-7.8
	c1.53-2.52-2.67-4.71-4.5-7.09c1.03,1.79,4.03,3.06,1.78,5.48c-1.93,2.08-4.78,1.88-6.87,0.48
	C392.73,240.05,390.26,239.25,388.69,237.22z"/>
<path class="st10" d="M12.72,179.51c-2.95-8.89-6.95-17.51-7.64-26.99c-1-13.75,3.25-26.56,7.62-39.31
	c0.97-2.82,2.27-2.88,4.72-1.08c5.23,3.85,8.32,9.4,12.28,14.26c8.33,10.76,12.79,23.02,14.29,36.47c0.36,3.27-0.3,6.35-1.58,9.2
	c-2.91,6.48-6.59,12.57-9.93,18.83c-0.24,0.11-0.48,0.22-0.73,0.32c-5.88,7.34-9.45,6.86-13.94-1.84
	C15.6,186.36,14.96,182.52,12.72,179.51z"/>
<path class="st14" d="M349.79,230.05c10.14,0.88,19.86,3.13,29.52,5.65c1.21,0.32,4.09-0.47,2.88,2.54
	c-0.75,1.86-1.89,3.63-4.51,2.82c-2.54-0.79-5.1-1.52-7.64-2.29c-1.6-0.48-3.27-1.17-4.63,0.37c-1.4,1.59-1.02,3.56-0.32,5.21
	c1.52,3.59,4.25,6.31,7.12,8.86c14.16,12.62,30.69,21.45,47.67,29.48c9.04,4.27,18.09,8.62,28.05,10.59
	c3.96,0.79,7.89,1.15,11.89,1.07c2.33-0.05,4.49-0.77,5.22-3.08c0.68-2.16-1.48-3.13-2.82-4.26c-1.14-0.96-2.46-1.69-3.73-2.48
	c-1.44-0.9-1.61-2.06-0.64-3.35c0.93-1.24,1.91-0.87,2.95,0.02c7.44,6.38,15.42,12.18,21.8,19.71c3.81,4.49,3.03,6.49-2.83,7.3
	c-5.53,0.77-11.06-0.16-16.31-1.59c-39.62-10.76-75.32-29.28-107.32-54.95c-4.28-3.43-8.15-7.36-11.38-11.81
	c-1.75-2.4-4.05-5.18-2.56-8.16C343.76,228.59,347.31,230.63,349.79,230.05z"/>
<path class="st15" d="M315.08,491.11c-2.41,4.28-4.49,9.02-10.76,8.22c-2.66-0.34-1.76,2.86-3.5,3.4c-1.45,1.23-3.03-0.2-4.52,0.22
	c-6.11,3.22-16.91,0.69-21.06-4.97c-0.9-1.23-2.46-0.77-3.49-1.57c-0.43-0.56-0.64-1.24-0.27-1.84c1.77-2.83,12.81-6.21,15.79-4.74
	c3.32,1.64,6.45,1.87,9.54-0.8c-4.97,0.31-9.93-1.81-14.75-0.48c-5.73,1.59-10.99,0.57-16.34-1.15l0.01-0.02
	c-0.94-2.43,0.61-2.92,2.45-3.04c1.81-0.12,3.63-0.06,5.45-0.04c-2.12-0.05-4.25,0.03-6.37-0.03c-1.42-0.04-2.65-0.36-2.86-2.08
	c-0.18-1.54,0.53-2.53,1.91-3.1c2.46-1.02,4.96-1.64,7.7-1.35c5.32,0.56,10.33-0.58,14.98-3.28c2.77-2.27,5.62-3.85,8.96-1.01
	c-0.72,1.59-2.57,3.27,1.36,3.48c4.11,0.22,6.34-1.56,7.71-5.08c3.54-0.72,6.95-2.82,10.72-0.99c0.82,3.08-2.63,2.23-3.46,4.24
	c3.53,0.28,5.55,2.17,4.88,6.07c-0.75,1.35-1.49,2.71-2.24,4.06c-3.75,2.07-7.46,4.43-11.93,1.34c0.69,3.2,2.52,3.84,5.23,3.21
	c1.73-0.4,3.36-1.54,5.28-0.92C316.65,489.85,315.88,490.48,315.08,491.11z"/>
<path class="st16" d="M434.46,300.51c-2.64,3.89-7.07,3.74-10.71,4.7c-3.98,1.05-8.32,0.8-12.51,1.01c-2.61,0.13-4.58-0.61-3.9-3.99
	c-5.67,3.81-9.72-0.49-13.87-2.93c-8.73-5.13-13.1-13.72-16.71-22.72c-0.63-1.57-0.37-3.59,0.74-4.64c1.41-1.34,2.79,0.29,3.76,1.28
	c3.09,3.15,7.11,6.14,10.44,7.72c4.84,2.28,9.57,5.34,14.68,6.9c8.22,2.51,14.62,8.38,22.66,11.19
	C430.78,299.63,432.88,299.1,434.46,300.51z"/>
<path class="st17" d="M388.69,237.22c3.89-0.94,5.57,4.09,9.47,3.49c1.01-0.15,2.23,0.81,3.09-0.46c0.89-1.32-0.12-2.17-0.94-2.98
	c-1.37-1.36-1.8-3.08-2.25-6.44c3.5,4.43,6.23,7.78,8.81,11.25c0.7,0.94-0.46,1.4-1.13,1.76c-2.29,1.21-2.29,2.39-0.36,4.11
	c1.98,1.76,1.26,3.52-0.64,4.98c-0.64,0.49-1.25,1.3-2.09,0.45c-0.74-0.74-0.54-1.51,0.3-2.07c1.11-0.75,1.77-1.52,0.6-2.78
	c-1.23-1.32-2.04-0.73-3.32,0.19c-1.62,1.15-4.39,0.61-5.09,3.95c2.88-1.31,4.71-0.25,5.81,2.3c0.19,0.45,0.64,0.79,0.83,1.24
	c1.08,2.56,4.1-2.4,4.6,1.1c0.3,2.1-3.01,1.91-3.41,3.89c-0.19,0.92,0.03,1.87,1.08,1.76c2.63-0.27,1.76,2.89,3.62,3.49
	c0.89,0.29,0.44,1.53-0.15,2.1c-0.77,0.75-1.72,0.33-2.08-0.43c-2.53-5.36-5.6-3.26-8.74-0.72c-5.99-3.59-11.82-7.38-17.05-12.06
	c-0.96-0.86-1.87-1.58-1.29-2.81C380.98,246.88,383.5,241.13,388.69,237.22z"/>
<path class="st18" d="M320.71,556.37c1.84-2.28,3.67,0.06,5.5,0.08c2.82,0.03,5.67-0.04,6.56-3.18c0.95-3.34-1.13-5.13-4.15-6.31
	c-2.62-1.02-5.2-2.06-8.14-2.37c3.83-2.38,8.05-0.73,12.69-1.19c-2.38-2.95-5.46-3.03-8.04-3.92c-1.7-0.59-3.44-1.48-3.45-3.04
	c-0.02-2.66,1.68-1.1,3.05-0.88c1.4,0.22,1.23-1.7,1.96-2.55c1.33-1.54,2.2-3.56,4.38-4.2c0.73,1.25-0.08,1.81-0.57,2.39
	c-2.12,2.52-2.9,4.92,0.4,7.11c3.25,2.16,5.44,0.19,7.14-2.17c2.88-4.02,5.69-4.74,10.41-2.89c2.8,1.1,5.24,4.26,9.33,2.21
	c-1.63-1.97-4.78-1.79-5.12-4.86c2.29,0.94,4.59,0.78,6.88,0.61c3.07-0.22,4.48,1.76,2.89,3.92c-2.54,3.45-1.84,7.21-1.43,10.52
	c0.55,4.39-0.78,6.88-4.34,8.89c-1.11,0.63-1.9,1.82-2.84,2.76c-0.66,0.68-1.31,1.36-1.97,2.03c-3.35,0.73-2.86-1.23-1.91-3.01
	c1.05-1.96,3.03-3.11,4.92-4.12c3.65-1.95,4.2-5.17,3.21-8.54c-1.02-3.45-3.45-5.6-7.5-5c-1.79,0.26-3.67-0.23-5.4,0.62
	c-1.78,0.86-3,1.73-2.13,4.2c2.48,7.09,0.48,12.04-6.36,16.56l-0.04,0.06c-1.33,1.02-2.95,1.15-3.9-0.09
	c-1.1-1.44,0.49-2.14,1.47-3.04c3.14-2.88,3.56-4.17,3.56-9.2c-0.06,8.14-4.34,11.63-13.03,10.6
	C323.12,558.3,322.01,557.16,320.71,556.37z"/>
<path class="st19" d="M274.75,454.2c1.29-0.7,2.58-1.4,3.87-2.1c1.95-0.62,3.9-0.18,5.84,0.04c-1.67-4.12,1.92-1.98,3.05-2.35
	c2.56-0.84,5.07-0.8,7.46,1.11c2.07,1.65,4.83,0.24,7.25,0.87c2.88,0.74,4.7,1.84,2.53,5.75c4.52-1.62,6.95,0.66,9.13,3.5
	c-0.2,2.56-1.74,5.68,2.78,6.22c0.66,0.08,0.44,1.05,0.14,1.66c-3.94,2.3-7.95,2.3-12.02,0.38c-0.37-0.85,0.11-1.46,0.6-2.07
	c0.44-0.54,0.57-1.16-0.07-1.61c-0.64-0.44-1.13,0.02-1.57,0.48c-0.29,0.28-0.61,0.5-0.93,0.68c-1.09,0.89,1.19,2.2-0.37,3.04
	c-4.41,2.07-9.12,0.98-13.69,1.26c-2.13,0.13-3.28-1.3-3.21-3.52c2.48-2.87,5.97-0.35,9.29-1.7c-2.13-1.14-3.87-0.47-5.56-0.31
	c-5.76,0.57-11.53,0.49-17.29,0.21c-2.01-0.1-5.06,0.24-4.25-3.57c0.34-0.32,0.67-0.65,1.01-0.97c3.77-2.34,7.62-3.34,12.21-2.26
	c3.62,0.85,7.58,1.09,10.75-2.03c0.82-0.81,2.19-0.59,3.49-0.24c-1.47-0.53-2.82-0.56-3.94,0.35c-1.61,1.3-3.33,1.41-5.14,0.73
	c-2.72-1.03-5.5-0.92-8.34-0.77C276,457.05,273.75,457.28,274.75,454.2z"/>
<path class="st20" d="M366.92,484.21c-1.08,2.78,3.97,5.37,0.85,7.63c-2.43,1.76-4.52-2.28-7.13-2.39
	c-4.65-0.19-8.85-3.04-13.67-2.17c-1.13,0.2-2.55,0.2-3.28-0.8c-2.99-4.11-7.33-3.54-11.39-3.12c-4.72,0.48-8.07-1.15-10.49-5.07
	c10.73-5.19,21.73-5.81,33-1.98c-0.77,3.55-4.1,1.67-6.41,3.17c3.24-0.17,5.68-0.16,6.78,3.63c1.01,3.47,4.27,3,7.1,1.68
	c1.48-0.69,2.77-2.93,4.6-0.53L366.92,484.21z"/>
<path class="st21" d="M336.7,560.07c1.98-3,3.85-6.08,5.97-8.98c1.53-2.09,1.42-3.78-0.14-5.8c-1.15-1.48-2.76-3.26-0.9-5.29
	c3.57-3.89,8.29-2.84,12.63-2.41c3.42,0.33,4.72,3.53,5.39,6.41c0.88,3.76,0.26,7.23-3.71,9.32c-1.74,0.91-3.38,2.09-4.88,3.38
	c-1.43,1.23-1.09,2.27,0.81,2.67C346.83,559.84,341.92,563.21,336.7,560.07z"/>
<path class="st22" d="M296.3,502.94c1.45-1.25,3-0.42,4.52-0.22c0.07,0.15,0.13,0.32,0.23,0.45c1.86,2.33,3.86,5.52,6.98,4.7
	c3.27-0.86,5.27-3.93,4.74-8.13c2.31,0.67,3.07,2.02,3.04,3.73c-0.05,2.49,1.37,4.44,2.2,6.58c1.45,3.77,4.18,5.07,7.93,3.05
	c2.03-1.09,3.93-2.43,7.24-0.58c-8.64,1.49-11.07,8.14-14.32,14.29c-1.42-1.07-0.88-2.37-0.52-3.54c1.1-3.51-0.04-6.62-1.85-9.47
	c-2.68-4.23-5.12-4.26-8.01-0.24c-2.1,2.92-3.28,0.4-4.69-0.72c-0.73-0.58-1.34-1.9-2.39-1c-1.14,0.99-0.35,2.19,0.45,3.05
	c2.1,2.26,4.49,3.59,7.44,1.48c4.23-3.05,5.42-2.36,6.52,4.7c-2.39-3.29-4.27-4.25-7.88-2.31c-4.5,2.42-8.07-0.26-9.13-5.55
	c-0.39-1.94-1.24-3.81-0.92-5.87C299.29,505.19,298.07,503.97,296.3,502.94z"/>
<path class="st23" d="M304.87,468.19c3.92,1.23,7.85,1.4,11.79,0.15c0.36-0.61,0.71-0.61,1.05,0.02c0.15,0.26,0.22,0.54,0.21,0.83
	c0.42,0.79,0.59,1.53-0.38,2.06c-3.72-0.54-7.08,2.29-10.86,1.14c-1.24,1.72-3.18,2.39-4.99,3.15c-1.44,0.6-3.27,1.51-3.91-1.12
	c-3.28-3.07-5.94,0.28-8.87,0.86c-6.61,1.14-13.2,2.24-19.92,2.71c-2.68,0.19-4.04-0.63-5.17-2.68c0-1,0.01-2,0.01-3.01
	c1.04-3.34,4-5.01,6.76-4.49c4.6,0.87,8.72-0.09,12.98-1.18c0.81-0.21,1.62,0.04,2.26,0.66c0.54,0.81,1.25,2.39,1.6,2.31
	c5.06-1.1,10.43,1.02,15.33-1.46c-0.53-0.65-0.55-1.28,0.1-1.87l-0.07,0.05C304.82,465.47,305.5,466.11,304.87,468.19z"/>
<path class="st24" d="M428.82,249.33c-0.05-1.47,0.86-2.4,1.76-3.4c2.36-2.63,6.99-4.39,3.48-9.35c-0.43-0.6,0.39-2.19,1.65-2.68
	c1.46,0.75,0.05,1.72,0.25,2.52c0.42,1.77,0.51,4.4,2.99,1.14c1-1.31,2.45,0.32,3.67-0.15c3.1,3.35,7.41,5.78,8.27,10.84
	c-3.33,1.17-6.94,1.72-5.52,7.09c0.45,1.7-1.82,3.43-4.73,2.37c-3.48-1.27-6.11-3.33-7.25-6.67c-1-2.93-2.68-2.21-4.6-1.72
	L428.82,249.33z"/>
<path class="st25" d="M265.72,487.4c3.48-0.13,6.97-0.41,10.37,0.78c0.75,0.26,1.91,0.46,2.44,0.08c5.05-3.64,10.85,0.43,16.13-1.65
	c1.51-0.6,4.56-0.16,4.9,2.08c0.38,2.46-1.87,3.35-4.22,3.9c-4.67,1.09-8.32-1.16-12.53-3.65c-0.03,1.89,2.18,4.95-2.4,3.32
	c-2.07-0.74-7.13-0.08-8.65,4.15C268.88,493.98,266.94,490.93,265.72,487.4z"/>
<path class="st26" d="M285.84,467.29c-4.02,0.55-7.84,4.29-11.69,2.6c-4.58-2.01-7.18,0.39-10.31,2.4
	c1.05-3.47,1.25-7.26,3.87-10.14c0.18,2.36,1.86,2.31,3.59,2.26c6.77-0.21,13.57,0.4,20.29-1c1.11-0.23,2.32-0.17,3.46-0.03
	c1.69,0.2,2.74,1.25,2.72,2.99c-0.02,2.2-1.73,2.15-3.22,2.01C291.64,468.1,288.74,467.67,285.84,467.29z"/>
<path class="st27" d="M91.49,228.64c-1.43-0.09-2.03-0.98-2.15-2.28c-0.33-3.76-2.62-5.46-6.12-6.13c-1.19-0.23-2.99-0.32-2.94-2.09
	c0.05-1.48,1.67-1.45,2.73-1.62c3.91-0.64,6.37-2.6,6.85-6.72c0.12-0.99,0.7-1.95,1.9-1.99c1.34-0.04,1.51,1,1.63,2.03
	c0.51,4.28,3.14,6.39,7.22,7c1.05,0.16,2.05,0.41,1.94,1.73c-0.08,0.91-0.83,1.56-1.65,1.63c-4.59,0.4-7.4,2.61-7.93,7.37
	C92.89,228.3,92.21,228.59,91.49,228.64z"/>
<path class="st28" d="M383.79,516.27c-1.07,0.66-1.64,0.3-2.32-0.75c-3.3-5.13-8.52-8.11-13.29-11.58
	c-0.89-0.64-1.69-1.82-3.02-1.24c-3.94,1.73-3.18-1.68-4.72-4.31c2.69,1.06,4.44,1.66,6.12,2.43c6.28,2.9,7.3,2.47,9.81-4.13
	c0.21-0.54,0.91-0.89,1.38-1.33c1.66,3.17,3.35,6.33,4.18,9.85c0.59,3.04,1.13,6.08,1.84,9.1
	C383.77,514.96,383.78,515.62,383.79,516.27z"/>
<path class="st29" d="M457.85,379.24c-0.2,1-1.07,1.17-1.87,1.24c-4.14,0.37-6.71,2.45-7.57,6.6c-0.19,0.92-0.46,2.14-1.68,2.18
	c-1.66,0.05-1.5-1.51-1.74-2.53c-0.85-3.6-2.81-5.93-6.69-6.24c-1.2-0.1-2.42-0.25-2.33-1.89c0.06-1.18,0.86-1.83,1.94-1.87
	c4.3-0.16,6.71-2.37,7.47-6.55c0.15-0.82,0.47-1.64,1.51-1.67c0.95-0.03,1.78,0.6,1.83,1.37c0.34,4.63,3.03,6.65,7.36,7.21
	C457.05,377.21,457.82,378.03,457.85,379.24z"/>
<path class="st30" d="M273.57,422.17c-1.46-0.3-2.03-1.08-2.1-2.17c-0.27-4.26-2.85-6.05-6.77-6.6c-1.13-0.16-2.46-0.52-2.41-2.03
	c0.04-1.37,1.36-1.21,2.27-1.38c3.73-0.66,6.6-2.19,7.27-6.38c0.17-1.08,0.57-2.45,2.12-2.31c1.34,0.12,1.18,1.39,1.36,2.31
	c0.77,3.94,3.21,6.03,7.14,6.48c1.05,0.12,2.1,0.29,2.07,1.61c-0.02,0.88-0.64,1.69-1.52,1.75c-4.83,0.34-7.66,2.72-8.25,7.64
	C274.69,421.53,273.88,421.89,273.57,422.17z"/>
<path class="st31" d="M284.89,676.48c1.56,0.13,1.96,1.07,2.07,2.07c0.46,4.28,2.91,6.46,7.07,7.02c0.94,0.13,2.09,0.33,1.92,1.72
	c-0.11,0.93-0.87,1.52-1.68,1.59c-4.38,0.4-6.99,2.65-7.79,7.02c-0.14,0.78-0.55,1.63-1.65,1.44c-0.93-0.16-1.47-0.88-1.55-1.72
	c-0.42-4.37-3.06-6.35-7.15-6.94c-1-0.15-2.01-0.73-1.95-1.89c0.02-0.43,0.88-1.12,1.42-1.18c4.71-0.55,7.62-2.91,8.32-7.76
	C284.01,677.31,284.62,676.85,284.89,676.48z"/>
<path class="st32" d="M355.66,162.43c-0.03,3.94-2.64,6.49-6.6,6.45c-3.76-0.03-6.69-2.94-6.61-6.57c0.07-3.4,3.37-6.68,6.74-6.69
	C352.48,155.61,355.69,158.99,355.66,162.43z"/>
<path class="st33" d="M179.79,465.81c3.34,0,6.8,3.42,6.76,6.69c-0.04,3.08-3.84,6.91-6.93,6.52c-3.63-0.45-6.14-2.41-6.21-6.47
	C173.33,468.66,176.04,465.81,179.79,465.81z"/>
<path class="st34" d="M391.86,394.77c-0.08,3.5-3.28,6.52-6.83,6.43c-3.48-0.09-6.67-3.41-6.28-6.87c0.43-3.73,2.62-6.03,6.48-6.2
	C388.7,387.98,391.94,391.35,391.86,394.77z"/>
<path class="st26" d="M263.83,475.3c1.95,1.19,3.8,2.96,6.12,0.53c0.72-0.76,1.89-0.88,2.82-0.47c3.38,1.47,6.45,0.46,9.62-0.78
	c2.19-0.85,4.53-1.19,6.53,0.69c0.39,1.19,2.79,0.57,2.33,2.04c-0.51,1.65-1.87,0.71-2.8,0.07c-0.9-0.62-1.84-1.06-2.69-0.19
	c-3.74,3.82-8.46,1.83-12.78,2.23c-0.47,0.04-0.98-0.37-1.44-0.32c-2.47,0.26-6.28,0.18-6.29,2.74c-0.01,2.7,3.53,0.99,5.48,1.17
	c1.61,0.15,3.27-0.34,4.92-0.52c1.12-0.12,2.56-0.55,2.81,1.09c0.25,1.7-1.25,1.7-2.38,1.74c-2.33,0.1-4.66,0.12-6.98,0.08
	c-1.57-0.03-3.06-0.1-3.35,1.97C262.48,483.76,264.09,479.38,263.83,475.3z"/>
<path class="st35" d="M366.89,484.24c-2.04-1.15-2.48,0.85-3.42,1.78c-2.1,2.07-4.7,1.77-6.96,0.91c-1.78-0.68-4.19-1.64-3.23-4.67
	c0.52-1.66-0.55-2.02-1.97-1.7c-0.8,0.18-1.59,0.59-2.39,0.59c-1.39,0-3.51,0.72-3.78-1.23c-0.31-2.28,2.02-2.13,3.54-2.47
	c2.03-0.45,4.35,0.64,6.13-1.16C359.97,477.24,363.83,480.14,366.89,484.24z"/>
<path class="st36" d="M311.37,426.13c4.31-2.25,8.59-3.97,9.28-9.94c1.74,4.93,4.77,8.27,10.32,9.27
	c-7.36,4.05-7.36,4.05-10.31,10.21C319.49,430.37,316.99,426.82,311.37,426.13z"/>
<path class="st37" d="M247.82,257.92c-1.3-5.51-4.47-8.44-10.97-9.53c5.73-2.18,10.12-4.08,10.77-10.26
	c1.49,5.41,4.48,8.69,10.1,9.87C252.57,249.54,248.8,252.2,247.82,257.92z"/>
<path class="st38" d="M101.44,288.61c-3.57,0.08-6.62-2.69-6.44-6.14c0.19-3.67,2.32-5.82,5.99-6.07c3.4-0.24,6.59,2.89,6.58,6.17
	C107.55,285.63,104.6,288.54,101.44,288.61z"/>
<path class="st39" d="M291.97,641.19c-0.96-2.27-2.56-3.71-5.09-3.96c-1.59-0.98-1.76-1.93,0.05-2.85c4.09-0.89,5.15-4.67,7.99-9.35
	c0.15,7,4.13,9.08,9.17,10.58c-3.07,2.38-7.45,1.52-8.3,5.63c-0.97,0.84,0.27,3-1.47,3.09
	C292.46,644.42,292.54,642.42,291.97,641.19z"/>
<path class="st40" d="M274.75,454.2c0.42,0.87,0.62,1.77,2.08,1.55c3.59-0.54,7.21-1.26,10.58,1.1c1.05,0.73,2.2-0.12,3.15-0.88
	c1.61-1.29,3.51-0.88,5.29-0.7c1.73,0.17,3.79,1.28,3.29,2.94c-0.67,2.22-2.4,0.2-3.63-0.14c-1.14-0.31-2.56-0.95-3.36-0.13
	c-4.76,4.9-10.11,2.68-15.38,1.51c-2.97-0.66-5.01,2.82-8.04,1.72C270.83,458.94,271.97,455.86,274.75,454.2z"/>
<path class="st41" d="M136.97,369.42c-2.18,1.56-2.36,4.22-3.93,7.74c-1.31-5.9-4.74-8.78-9.41-10.83c5.79-0.47,7.48-4.72,9.53-9.33
	c1.79,3.68,2.34,7.67,6.68,8.34c1.4,0.89,1.75,1.67,0.02,2.69C138.92,368.58,137.7,368.49,136.97,369.42z"/>
<path class="st42" d="M313.75,461.41c-2.12-1.59-3.5-5.18-7.21-2.24c-1.01,0.8-2.73-0.09-3.59-1.07c-1.02-1.17-0.14-2.21,1.03-2.71
	c2.23-0.94,0.69-1.81-0.1-2.38c-1.45-1.05-3.08-0.79-4.77-0.38c-2.32,0.56-4.57,2.29-6.4-1.72c-0.94-2.06-4.91-0.26-7.8-0.67
	c0.58,1.78,2.77,0.62,2.97,2.58c-3.12,1.07-6.2,0.47-9.26-0.72c8.87-6.89,27.66-3.24,35.24,8.14
	C314.32,460.67,314.29,461.07,313.75,461.41z"/>
<path class="st43" d="M416.99,507.71c-8.15,2.59-16.67,3.3-25.1,4.49c-1.17,0.17-2.46-0.2-2.62-1.65c-0.16-1.42,0.91-2.16,2.13-2.27
	c8.48-0.76,16.97-1.44,25.46-2.14C416.89,506.66,416.94,507.18,416.99,507.71z"/>
<path class="st44" d="M266.67,525.66c7.85-2.93,16.14-3.36,24.16-5.08c1.21-0.26,2.46,0.16,2.58,1.65c0.13,1.62-1.03,2.61-2.43,2.62
	C282.86,524.94,274.84,527.01,266.67,525.66z"/>
<path class="st1" d="M35.88,133.33c5.65,7.12,7.14,15.76,9.02,24.3c1.54,6.97,0.84,13.51-3.02,19.58c-0.51,0.81-1.33,1.42-2.01,2.12
	c-0.17-0.22-0.33-0.43-0.5-0.64c-0.12-0.49-0.27-1.03-0.02-1.46c7.84-13.43,2.1-25.94-2.74-38.45
	C35.91,136.93,34.49,135.39,35.88,133.33L35.88,133.33z"/>
<path class="st45" d="M310.77,586.2c3.02-7.95,6.04-15.91,9.08-23.86c0.45-1.19,1.26-2.01,2.67-1.44c0.89,0.36,1.34,1.34,1.02,2.04
	c-3.68,8.01-7.45,15.98-11.2,23.96C311.82,586.67,311.29,586.43,310.77,586.2z"/>
<path class="st46" d="M302.68,538.46c-0.91-2.2-1.6-4.49-0.46-6.74c1.28-2.52,0.51-4.68-1.13-6.93c1.55-0.41,2.66-0.69,3.76-0.99
	c1.12-0.3,2.4-0.88,3.29,0.12c1.16,1.31-0.13,2.37-0.69,3.53c-3.72,7.66-3.48,8.84,2.57,13.45c-1.81,0.48-3.53,0.94-5.25,1.4
	C304.08,541.03,303.38,539.75,302.68,538.46z"/>
<path class="st47" d="M373.68,489.53c-0.2,3.35,1.82,7.65-1.61,9.71c-3,1.8-5.86-1.73-8.82-2.79c-1.84-0.66-3.31-2.03-5.39-2.36
	c-1.71-0.27-3.3-1.34-5.99-2.5c3.85-0.62,6.36-0.39,9.07,1c8.52,4.34,9.53,3.77,10.68-5.08
	C372.3,488.18,372.99,488.85,373.68,489.53z"/>
<path class="st48" d="M371.05,447.06c-1.65,8.19-5.14,15.69-7.99,23.41c-0.47,1.27-1.28,2.01-2.64,1.57
	c-1.4-0.45-1.76-1.82-1.19-2.85C363.26,461.87,366.02,453.88,371.05,447.06z"/>
<path class="st49" d="M386.7,576.93c-4.59-3.93-7.82-9.1-11.83-13.55c-1.55-1.72-3.04-3.51-4.42-5.37
	c-0.75-1.02-0.74-2.29,0.42-3.08c1.03-0.7,1.94-0.02,2.53,0.82c4.79,6.8,9.54,13.62,14.3,20.44
	C387.36,576.43,387.03,576.68,386.7,576.93z"/>
<path class="st30" d="M336.56,292.4c-2.89,0-4.47-1.6-4.69-3.86c-0.25-2.58,1.31-4.58,4.06-4.65c2.37-0.06,4.28,1.34,4.46,3.82
	C340.58,290.39,338.89,291.91,336.56,292.4z"/>
<path class="st50" d="M253.72,537.84c2.41,0.54,4.21,1.83,4.17,4.56c-0.03,2.48-1.75,4.08-3.98,4.26c-2.65,0.21-4.46-1.79-4.59-4.22
	C249.19,539.93,251.04,538.34,253.72,537.84z"/>
<path class="st51" d="M363.95,601.95c2.49,0.61,4.56,1.85,4.45,4.57c-0.09,2.33-1.76,4.15-4.16,4.21c-2.69,0.07-4.32-1.85-4.36-4.43
	C359.85,603.86,361.7,602.6,363.95,601.95z"/>
<path class="st52" d="M301.78,222.04c-0.33,2.57-1.92,4.07-4.32,3.96c-2.37-0.1-4.08-1.67-3.97-4.23c0.12-2.69,1.86-4.46,4.51-4.22
	C300.35,217.76,301.7,219.56,301.78,222.04z"/>
<path class="st21" d="M324.76,558.4c4.57,0.15,8.29-0.98,10.91-5.33c1.99-3.3,0.45-5.9-1.7-9.63c3.42,0.99,4.73,1.97,4.95,4.25
	c0.48,5-0.98,9.07-5.67,11.48c1.09,1.47,2.34,0.8,3.42,0.95c-0.78,1.5-2.59,1.6-3.34,0.97C330.77,558.93,327.32,560.14,324.76,558.4
	z"/>
<path class="st53" d="M430.15,424.74c-0.57,2.48-1.73,4.48-4.57,4.31c-2.47-0.15-3.99-1.93-4.02-4.27c-0.03-2.69,1.9-4.39,4.47-4.29
	C428.32,420.59,429.9,422.21,430.15,424.74z"/>
<path class="st54" d="M325.56,759.15c-0.66,2.22-1.82,3.98-4.4,3.97c-2.91-0.01-4.36-1.98-4.19-4.52c0.15-2.32,1.79-3.91,4.45-3.71
	C323.99,755.1,325.17,756.7,325.56,759.15z"/>
<path class="st55" d="M336.4,333.6c2.28,0.54,3.99,1.85,4.08,4.24c0.09,2.5-1.77,4.03-4.01,4.15c-2.41,0.13-3.9-1.5-3.9-4.05
	C332.56,335.43,333.94,334.05,336.4,333.6z"/>
<path class="st38" d="M337.64,684.07c-0.38,2.5-1.46,4.14-4.15,4.03c-2.59-0.11-4.01-1.67-3.98-4.08c0.03-2.43,1.61-3.92,4.13-3.95
	C336.31,680.05,337.26,681.87,337.64,684.07z"/>
<path class="st56" d="M183.83,379.1c2.55,0.32,4.18,1.69,4.16,4.19c-0.02,2.23-1.61,3.88-3.72,4.05c-2.45,0.2-4.15-1.62-4.35-3.91
	C179.72,380.97,181.52,379.61,183.83,379.1z"/>
<path class="st56" d="M475.02,231.41c2.32,0.48,4.15,1.55,3.94,4.24c-0.19,2.49-1.81,3.96-4.29,3.89c-2.35-0.07-3.62-1.89-3.72-3.97
	C470.85,233.07,472.52,231.71,475.02,231.41z"/>
<path class="st26" d="M317.55,471.25c0.13-0.69,0.25-1.37,0.38-2.06c0.65,3.28,1.3,6.55,1.94,9.83c-0.15,0.75,0.17,1.65-0.72,2.15
	c-1.1-2.24-1.28-5.65-5.4-3.85c-0.94,0.41-2.43,0.15-2.69-1.35c-0.23-1.31,0.83-1.94,1.71-2.71
	C314.17,472.03,316.41,472.97,317.55,471.25z"/>
<path class="st57" d="M465.64,324.3c1.95,0.42,2.99,1.58,2.86,3.51c-0.1,1.56-1.19,2.4-2.69,2.37c-1.9-0.04-3.28-1.02-3.1-3.05
	C462.86,325.52,464,324.51,465.64,324.3z"/>
<path class="st58" d="M124.14,230.36c-1.86-0.27-3.03-1.32-3.08-3.22c-0.04-1.75,1.09-2.74,2.77-2.83c1.72-0.09,2.89,0.91,3.09,2.56
	C127.16,228.8,125.94,229.86,124.14,230.36z"/>
<path class="st26" d="M313.75,461.41c0.03-0.39,0.07-0.78,0.1-1.17c1.29,2.71,2.58,5.41,3.86,8.12c-0.35-0.01-0.7-0.01-1.05-0.02
	c-0.22-0.23-0.39-0.56-0.65-0.69c-1.58-0.75-3.87,1.66-5.04-1.21C309.78,463.51,313.13,463.25,313.75,461.41z"/>
<path class="st59" d="M235.62,355.42c-1.9-0.15-3.04-1.23-3.23-2.74c-0.25-1.96,1.13-3.08,2.98-3.09c1.64-0.01,2.78,0.97,2.76,2.79
	C238.1,354.11,236.98,354.96,235.62,355.42z"/>
<path class="st60" d="M311.7,297.13c-0.36,1.18-0.94,2.29-2.34,2.13c-1.23-0.14-2.24-1.01-2.14-2.34c0.09-1.3,1.17-2.08,2.41-2.11
	C311.03,294.77,311.59,295.83,311.7,297.13z"/>
<path class="st61" d="M338.29,261.39c-1.5-0.2-2.3-0.98-2.31-2.24c-0.01-1.2,0.51-2.34,1.92-2.31c1.47,0.03,2.42,0.98,2.47,2.45
	C340.42,260.71,339.18,261.01,338.29,261.39z"/>
<path class="st62" d="M135.35,185.6c1.23,0.49,2.4,1.18,2.3,2.71c-0.09,1.31-1.22,2.07-2.36,2.02c-1.38-0.07-2.46-0.99-2.28-2.58
	C133.16,186.5,134.04,185.78,135.35,185.6z"/>
<path class="st63" d="M202.39,370.51c1.4,0.12,2.24,0.82,2.21,2.18c-0.03,1.27-0.68,2.27-2.09,2.18c-1.3-0.08-2.09-0.96-2.2-2.24
	C200.2,371.17,201.21,370.68,202.39,370.51z"/>
<path class="st63" d="M274.27,351.93c1.19,0.21,2.23,0.61,2.17,2.1c-0.06,1.39-0.97,2.06-2.2,2.11c-1.37,0.05-2-0.92-2.09-2.19
	C272.04,352.47,272.97,351.98,274.27,351.93z"/>
<path class="st64" d="M458.35,210.23c-0.22,1.38-1.33,1.75-2.5,1.73c-1.37-0.03-2.1-0.94-1.88-2.3c0.19-1.24,0.9-2.18,2.33-1.92
	C457.57,207.96,458.24,208.85,458.35,210.23z"/>
<path class="st62" d="M169.61,417.97c-1.48,0.02-1.99-0.9-2.03-2.18c-0.04-1.34,0.58-2.2,2.03-2.11c1.27,0.08,2.21,0.65,2.15,2.1
	C171.71,417.12,170.93,417.84,169.61,417.97z"/>
<path class="st65" d="M217.39,179.03c-0.23,1.22-0.7,2.27-2.18,2.12c-1.29-0.13-2.14-0.96-2.12-2.26c0.02-1.4,1.16-1.96,2.32-2.08
	C216.92,176.65,217.26,177.82,217.39,179.03z"/>
<path class="st66" d="M225.66,437.75c-1.4-0.04-2.26-0.82-2.38-2.09c-0.13-1.32,0.72-2.28,2.03-2.35c1.3-0.07,2.22,0.8,2.39,2.07
	C227.88,436.8,226.82,437.38,225.66,437.75z"/>
<path class="st8" d="M420.03,212.22c-1.19-0.2-2.28-0.65-2.32-2.06c-0.04-1.29,0.66-2.26,1.97-2.43c1.45-0.18,2.05,0.85,2.22,2.09
	C422.08,211.17,421.45,212.01,420.03,212.22z"/>
<path class="st25" d="M392.66,347.96c-0.33,1.22-1.02,2.14-2.37,2.05c-1.42-0.09-1.92-1.15-1.81-2.43c0.09-1.15,0.95-1.84,1.99-1.78
	C391.66,345.86,392.65,346.5,392.66,347.96z"/>
<path class="st67" d="M425.61,479.31c1.37,0.09,2.09,0.87,2.09,2.19c0,1.36-0.78,2.17-2.15,2.05c-1.23-0.11-2.18-0.79-2.18-2.17
	C423.37,479.94,424.37,479.47,425.61,479.31z"/>
<path class="st68" d="M297.21,601.32c1.28,0.15,2.13,0.74,2.12,2.15c-0.01,1.43-0.89,1.99-2.19,2.01c-1.39,0.02-2.11-0.72-2.06-2.1
	C295.11,602.06,295.81,601.31,297.21,601.32z"/>
<path class="st69" d="M270.69,582.91c-1.5-0.16-1.96-1.11-1.89-2.44c0.07-1.17,0.73-1.86,1.89-1.87c1.35-0.01,2.27,0.68,2.21,2.11
	C272.85,582.05,272.06,582.83,270.69,582.91z"/>
<path class="st70" d="M490.76,228.76c1.34,0.03,2.04,0.87,2.15,2.12c0.11,1.32-0.65,2.2-1.97,2.22c-1.26,0.02-2.2-0.68-2.21-2.04
	C488.73,229.8,489.34,228.91,490.76,228.76z"/>
<path class="st71" d="M402.48,185.33c0.11,1.74-0.87,2.22-2.11,2.32c-1.13,0.09-1.96-0.49-1.99-1.64c-0.03-1.16,0.19-2.38,1.76-2.44
	C401.46,183.53,402.21,184.29,402.48,185.33z"/>
<path class="st72" d="M402.66,459.17c1.3-0.11,2.01,0.54,2.17,1.63c0.19,1.29-0.29,2.31-1.76,2.4c-1.1,0.07-1.97-0.46-2.13-1.6
	C400.75,460.28,401.4,459.42,402.66,459.17z"/>
<path class="st67" d="M388.71,425.06c-1.55-0.32-2.14-1.26-2.07-2.53c0.06-1.1,0.83-1.89,1.9-1.92c1.33-0.04,2.24,0.83,2.22,2.16
	C390.74,424.07,389.78,424.77,388.71,425.06z"/>
<path class="st73" d="M85.75,245.22c-0.08,1.39-0.83,2.03-2.19,1.95c-1.45-0.09-1.88-1.06-1.82-2.32c0.06-1.17,0.81-1.66,1.92-1.67
	C85.02,243.17,85.75,243.83,85.75,245.22z"/>
<path class="st74" d="M336.53,360.08c-0.27,1.59-1.16,2.29-2.36,2.29c-1.28,0-2.11-0.87-2.05-2.18c0.06-1.27,0.85-2.15,2.18-2.03
	C335.53,358.27,336.21,359.17,336.53,360.08z"/>
<path class="st67" d="M219.13,516.57c-0.23,1.2-0.6,2.33-2.14,2.14c-1.3-0.16-2.08-0.98-2.06-2.33c0.02-1.22,0.92-1.68,1.97-1.78
	C218.28,514.46,219.07,515.13,219.13,516.57z"/>
<path class="st64" d="M500.94,275.59c-1.43-0.13-2.06-0.93-1.94-2.26c0.1-1.05,0.69-1.81,1.82-1.86c1.37-0.06,2.09,0.7,2.14,2.03
	C503.01,274.89,502.21,275.52,500.94,275.59z"/>
<path class="st75" d="M346,596.52c-0.19,1.17-0.94,1.67-2.05,1.64c-1.43-0.04-2.06-0.9-1.95-2.24c0.09-1.12,0.8-1.78,1.96-1.68
	C345.32,594.34,345.94,595.2,346,596.52z"/>
<path class="st76" d="M255.54,624.75c1.34,0.06,2.14,0.56,2.32,1.69c0.23,1.48-0.75,2.08-1.97,2.29c-1.21,0.22-1.84-0.56-2.01-1.63
	C253.65,625.69,254.5,625.03,255.54,624.75z"/>
<path class="st77" d="M336.93,178.06c-0.05,1.33-0.71,1.96-1.88,1.97c-1.38,0.02-2.2-0.63-2.15-2.1c0.04-1.19,0.72-1.82,1.87-1.87
	C336.21,176.01,336.89,176.79,336.93,178.06z"/>
<path class="st76" d="M336.5,657.16c-0.26,1.24-1.02,2.08-2.33,2.04c-1.2-0.03-1.62-1.07-1.68-2.08c-0.09-1.46,0.79-2.11,2.17-1.94
	C335.72,655.31,336.45,655.93,336.5,657.16z"/>
<path class="st57" d="M265.21,183.66c1.3,0.04,2.16,0.61,2.27,1.98c0.1,1.18-0.58,1.78-1.69,1.9c-1.34,0.14-2.2-0.34-2.17-1.84
	C263.65,184.63,264,183.81,265.21,183.66z"/>
<path class="st40" d="M315.04,207.24c-0.13,1.18-0.48,2.3-1.97,2.29c-1.1,0-1.91-0.67-2.03-1.78c-0.16-1.38,0.57-2.2,1.98-2.27
	C314.17,205.42,314.85,206.04,315.04,207.24z"/>
<path class="st77" d="M237.91,399.16c-0.12,1.26-0.67,2-1.89,1.93c-1.35-0.08-2.16-0.8-2.07-2.23c0.1-1.54,1.24-1.9,2.46-1.78
	C237.61,397.21,237.91,398.2,237.91,399.16z"/>
<path class="st78" d="M248.72,509.97c-1.13-0.03-1.94-0.46-2-1.7c-0.07-1.38,0.58-2.21,2.01-2.24c1.14-0.02,1.88,0.53,1.99,1.72
	C250.86,509.19,250.12,509.89,248.72,509.97z"/>
<path class="st79" d="M374.9,316.31c-1.62-0.11-2.33-0.93-2.3-2.26c0.03-1.19,0.91-1.67,1.99-1.73c1.13-0.06,1.96,0.46,2.05,1.63
	C376.74,315.29,376.05,316.12,374.9,316.31z"/>
<path class="st80" d="M317.88,733.97c1.3,0.21,2.04,0.74,1.99,1.92c-0.06,1.35-0.84,2.13-2.18,2c-1.39-0.13-1.88-1.18-1.73-2.43
	C316.1,734.27,317.07,734.03,317.88,733.97z"/>
<path class="st81" d="M136.97,369.42c0.19-1.9,4.53-0.88,2.87-4.08c1.28-0.13,3.01-0.62,3.47,0.84c0.54,1.72-1.34,1.95-2.51,2.34
	C139.55,368.93,138.24,369.13,136.97,369.42z"/>
<path class="st82" d="M189.85,455.28c1.42,0.07,2.15,0.64,2.24,1.79c0.11,1.43-0.69,2.11-2.08,2.1c-1.29-0.01-1.66-0.86-1.63-1.96
	C188.41,456.11,188.94,455.39,189.85,455.28z"/>
<path class="st9" d="M12.72,179.51c3.07,2.58,3.81,6.36,5.1,9.86l-0.48,0.06c0,0-0.49-0.01-0.49-0.01
	C15.47,186.12,14.1,182.82,12.72,179.51z"/>
<path class="st83" d="M236.54,551.37c-0.05,1.3-0.76,2.12-2.11,2.04c-1-0.06-2.01-0.59-1.94-1.77c0.07-1.24,0.9-2.16,2.18-2.25
	C235.86,549.31,236.25,550.32,236.54,551.37z"/>
<path class="st72" d="M293.57,385.54c-0.05-1.23,0.53-1.98,1.64-2.13c1.29-0.17,2.29,0.34,2.43,1.77c0.11,1.15-0.58,1.91-1.64,2.08
	C294.69,387.48,293.79,386.87,293.57,385.54z"/>
<path class="st7" d="M426.51,337.8c0,1.45-0.82,2.02-1.83,2.26c-1.19,0.28-1.98-0.42-2.12-1.52c-0.16-1.28,0.32-2.36,1.86-2.33
	C425.54,336.24,426.17,337.01,426.51,337.8z"/>
<path class="st1" d="M35.88,186.33c0.29,2.25-0.45,4.16-1.96,5.79c-1.52,1.65-1.76,0.17-2.15-0.9c0,0-0.03,0.06-0.03,0.06
	c2-1.16,0.95-4.4,3.52-5.17C35.47,186.18,35.67,186.25,35.88,186.33z"/>
<path class="st84" d="M227.26,580.11c-0.26,1.08-0.98,1.82-2.04,1.76c-1.06-0.06-1.91-0.88-1.84-1.95c0.08-1.22,0.85-2.22,2.26-1.95
	C226.66,578.17,227.29,578.96,227.26,580.11z"/>
<path class="st85" d="M230.55,472.92c0,1.11-0.55,1.93-1.64,2c-1.28,0.09-2.22-0.62-2.17-2c0.04-1.09,0.8-1.75,1.89-1.8
	C229.81,471.06,230.32,471.86,230.55,472.92z"/>
<path class="st1" d="M39.88,179.33c-0.03,3.08-1.77,5.18-4,7c0,0-0.01,0-0.01,0C34.91,182.68,36.62,180.56,39.88,179.33
	L39.88,179.33z"/>
<path class="st86" d="M291.97,641.19c1.25,1.67,2.5,3.33,3.81,0.05c-0.03,1.74,0.52,4.48-1.55,4.55
	C291.86,645.88,291.93,643.17,291.97,641.19z"/>
<path class="st87" d="M322.97,713.18c-0.08,1.11-0.75,1.82-1.77,1.95c-1.16,0.15-1.79-0.67-1.87-1.73
	c-0.08-1.08,0.46-1.93,1.63-1.95C322.05,711.42,322.72,712.09,322.97,713.18z"/>
<path class="st78" d="M345.25,633.51c1.15,0.22,1.72,0.91,1.76,2.03c0.05,1.18-0.6,1.91-1.7,1.91c-1.09-0.01-1.76-0.74-1.73-1.91
	C343.61,634.42,344.19,633.74,345.25,633.51z"/>
<path class="st12" d="M383.76,514.31c-1.4-2.87-2.32-5.84-1.84-9.1C383.44,508.06,384.12,511.08,383.76,514.31z"/>
<path class="st88" d="M286.93,634.38c-0.64,0.94-1.22,1.88-0.05,2.85c-1.39,0-3.52,0.69-3.51-1.35
	C283.38,634.22,285.33,633.98,286.93,634.38z"/>
<path class="st0" d="M39.87,179.33c-2.23,1.82-3.99,3.91-4,7c-2.49,0.72-1.44,4.4-4.13,4.95c0.98-3.86,2.49-7.53,4.84-10.73
	c7.19-9.77,6.81-20.22,3.35-31.17c-2.55-8.07-6.44-15.49-10.23-22.98c3.16,1.33,3.25,5.39,6.17,6.95c-0.49,3.41,1.9,5.87,2.97,8.76
	c2.76,7.48,4.9,15.01,5.13,23.08C44.12,170.46,40.21,174.33,39.87,179.33z"/>
<path class="st89" d="M248.23,712.06c1.88,1,3.63,1.92,3.54,3.55c-0.09,1.57-1.59,3.19-3.29,3.09c-1.61-0.09-3.2-1.8-3.08-3.24
	C245.5,714.23,247.26,713.15,248.23,712.06z"/>
<path class="st90" d="M121.92,502.13c1.99,0.83,3.63,1.71,3.79,3.35c0.18,1.8-1.6,3.14-3.04,3.37c-1.69,0.27-2.88-1.55-3.24-3.03
	C118.94,503.77,121.81,503.96,121.92,502.13z"/>
<path class="st47" d="M324.71,487.9c2.66-0.82,4.01-0.38,5.43,0.23c2.84,1.22,4.55,2.52,1.79,5.63c-1.22,1.38-3.08,3.23-1.46,5.25
	c1.79,2.24,3.66,0.01,5.32-0.68c2.75-1.15,5.49-2.45,7.98-4.07c3.72-2.42,6.66,0.03,9.83,1.15c0.97,0.35,1.11,1.78,0.39,1.87
	c-2.5,0.29-3.59,6.32-7.39,1.68c-1.27-1.56-4.21-1.47-5.55-0.1c-4.87,4.94-10.78,3.04-17.04,3.29c1.05-1.92,1.55-3.75,2.74-4.85
	C330.71,493.59,330.3,490.63,324.71,487.9z"/>
<path class="st91" d="M374.75,532.04c0-2.48-0.21-4.16,0.04-5.77c0.84-5.55-2.12-9.2-6.05-12.3c-5.27-4.14-6.78-3.6-8.79,2.85
	c-0.29,0.93-0.55,1.96-1.13,2.7c-0.78,0.99-1.82,0.41-2.68-0.12c-1.21-0.75-0.97-1.45,0.05-2.25c3.61-2.85,2.4-6.09,0.62-9.32
	c-0.56-1.02-1.49-2.07-0.33-3.07c0.49-0.42,1.78-0.56,2.29-0.21c5.87,3.96,12.69,6.59,17.08,12.62
	C379.52,522.2,377.56,526.67,374.75,532.04z"/>
<path class="st92" d="M350.83,522.33c-3.83,0.22-6.88-2.15-10.33-3.19c-0.41-0.12-0.72-0.55-1.08-0.84
	c4.15-4.84-2.81-4.29-3.35-6.86c-0.09-0.42-0.48-0.77-1.13-1.75c4.14,0.63,6.18-4.83,11.02-1.74c4.02,2.56,1.51,7.52,5.05,9.63
	c-0.95,1.59-3.6-0.2-3.65,1.88c-0.05,2.07,2.09,1.59,3.46,1.9c0.35,0.22,0.46,0.43,0.35,0.65
	C351.06,522.22,350.94,522.33,350.83,522.33z"/>
<path class="st93" d="M350.83,522.33c0-0.32,0-0.65,0-0.97c1.18-0.06,2.21,0.32,3.3,0.81c4.41,1.98,7.86,0.36,8.69-4.5
	c0.64-3.74,2.16-3.05,4.23-1.49c3.2,2.41,5.43,5.38,4.84,9.68c-0.48,3.51-1.06,7-1.6,10.5c-0.47-0.01-0.95-0.02-1.42-0.04
	c0-2.48,0.02-4.95,0-7.43c-0.05-4.49-1.8-5.9-6.16-5.06C358.59,524.61,354.5,525.06,350.83,522.33z"/>
<path class="st94" d="M325.88,529.13c1.33-8.45,8.08-7.28,20.36,0.23c-0.59,1.24-1.72,0.91-2.55,0.65c-3.98-1.28-6.82-0.47-8,3.93
	c-0.37,1.37-1.2,2.59-2.81,2.03c-1.62-0.56-0.91-1.72-0.35-2.81c1.04-2.03,4.1-4.17,1.35-6.39
	C331.35,524.72,328.68,526.89,325.88,529.13z"/>
<path class="st95" d="M315.86,489.17c-1.48,0.67-3.28,2.23-4.37,1.83c-2.35-0.87-7.49,4.66-7.18-2.85c0.02-0.43-1.82-0.93-2.81-2.04
	c5.19,0.1,10.39,0.64,15.4-0.87c-0.16,0.72-1.1,1.46,0.06,2.15C317.23,488.37,316.75,488.89,315.86,489.17z"/>
<path class="st96" d="M315.86,489.17c0.37-0.6,0.74-1.19,1.11-1.79c2.5,1.2,4.94,2.58,7.53,3.54c2.43,0.9,1.94,1.9,0.89,3.65
	c-2.62,4.37-2.69,4.44-5.32,0c-1.15-1.94-2.49-3.53-5-3.46C315.34,490.46,315.6,489.81,315.86,489.17z"/>
<path class="st97" d="M341.72,523.54c1.75-0.63,3.11-0.07,4.51,0.48c4.99,1.97,10.14,2.85,15.52,2.37c1.45-0.13,3.03-0.4,4.25,0.75
	c0.62,0.58,0.88,1.43,0.39,2.24c-0.46,0.77-1.2,0.54-1.68,0.11c-1.69-1.48-3.72-1.31-5.66-1.13
	C352.77,528.94,347,527.73,341.72,523.54z"/>
<path class="st98" d="M332.4,486.53c2.67-1.73,4.21-0.74,5.78-0.39c2.47,0.56,3.4,2.92,4.02,4.68c0.73,2.07-2.24,1.78-3.42,2.73
	c-1.33,1.07-2.71,2.47-5.3,2.67C335.39,492.75,340.08,489.13,332.4,486.53z"/>
<path class="st97" d="M323.83,524.28c4.47-9.88,6.05-10.74,16.17-1.83C334.19,520.1,328.49,518.57,323.83,524.28L323.83,524.28z"/>
<path class="st99" d="M351.59,503.57c0.38,0.33,0.89,0.56,1.04,0.93c1.02,2.59,2.07,5.17,2.9,7.83c0.37,1.18-0.18,2.38-1.49,2.72
	c-1.49,0.39-2.14-0.55-2.13-1.91c0.02-2.1-0.95-3.77-2.13-5.39C348.07,505.42,350.03,504.65,351.59,503.57z"/>
<path class="st97" d="M323.83,524.29c0.22,4.19-2.37,7.13-4.71,10.08c-2.4,3.03-4.37,1.81-6.94-1.85c6.27,2.06,7.69-2,9.47-5.38
	C322.24,526.02,321.99,524.41,323.83,524.29L323.83,524.29z"/>
<path class="st24" d="M423.07,239.82c-0.01-6.41,6.3-4.12,8.68-7.09c1.6,1.35,1.37,3.03,0.46,4.42c-1.12,1.71-2.31,0.75-3.76-0.08
	C425.68,235.48,425.68,239.85,423.07,239.82z"/>
<path class="st24" d="M428.8,249.31c-0.03,1.12,0.59,1.79,1.48,2.39c1.03,0.7,1.91,1.77,0.53,2.78c-1.66,1.21-1.75-0.53-2.25-1.48
	c-0.83-1.59-2.11-2-3.75-1.27c-1.08,0.47-2.18,0.3-2.36-0.88c-0.3-1.93,1.38-1.39,2.39-1.47c1.32-0.11,2.65-0.04,3.98-0.04
	C428.82,249.33,428.8,249.31,428.8,249.31z"/>
<path class="st26" d="M297.78,474.41c1.41,1.4,2.66,0.81,3.89-0.29c1.43-1.29,3.12-1.82,5.02-1.73c1.56,2.11,0.8,3.73-1.15,4.98
	c-3.1,1.98-9.29,0.73-11.9-2.39C294.89,473.68,296.4,474.45,297.78,474.41z"/>
<path class="st100" d="M299.74,481.77c5-0.68,10-1.39,15.01-2.02c0.67-0.08,1.39,0.36,1.37,1.13c-0.02,1.31-0.74,2.3-2.09,2.32
	c-4.75,0.07-9.49,0.03-14.24,0.03C299.77,482.75,299.75,482.26,299.74,481.77z"/>
<path class="st26" d="M304.87,468.19c-0.15-1.23-0.87-1.81-2.07-1.86c0.18-1.45,0.03-3.24,2.25-3.03c1.79,0.16,2.44,1.7,2.59,3.16
	C307.86,468.55,306.11,468.08,304.87,468.19z"/>
<path class="st26" d="M302.87,466.28c-0.03,0.62-0.07,1.25-0.1,1.87c-1.22,0.05-2.58,0.84-3.56-0.47c-0.19-0.26-0.06-0.98,0.17-1.29
	C300.46,464.97,301.69,465.86,302.87,466.28z"/>
<path class="st101" d="M347.47,547.27c-2.01-2.18-4.56-3.97-2.81-5.84c2.39-2.55,6.22-1.94,9.34-0.99c2.3,0.7,3.35,3.1,3.61,5.52
	c0.25,2.29-0.23,4.29-3.53,5.17c2.01-4.12,1-7.25-2.92-8.61C347.96,541.42,348.01,544.42,347.47,547.27z"/>
<path class="st102" d="M94.83,218.1c-0.55,1.53-1.54,2.88-2.9,3.16c-1.9,0.4-3.34-1.49-3.53-2.79c-0.23-1.58,1.66-2.87,3.2-3.06
	C93.16,215.22,93.68,217.2,94.83,218.1z"/>
<path class="st103" d="M450.34,379.06c-1.16,1.36-2.27,3.08-3.88,2.77c-1.06-0.21-2.91-1.52-2.56-3.09c0.32-1.43,1.29-3.43,3.16-3.1
	C448.58,375.92,449.65,377.49,450.34,379.06z"/>
<path class="st104" d="M273.97,408.28c0.87,1.26,3.16,1.73,2.58,3.58c-0.41,1.29-1.3,3.39-3.32,2.86c-1.55-0.4-3.17-1.87-2.95-3.45
	C270.47,409.82,272.28,408.94,273.97,408.28z"/>
<path class="st105" d="M285.28,690.84c-1.59-1.3-3.68-2.39-3.44-4.1c0.16-1.15,2.3-2.76,3.58-2.78c1.04-0.01,3.24,1.57,2.85,3.27
	C287.96,688.58,286.34,689.63,285.28,690.84z"/>
</svg>
